Coordinates
version=1
nRows=65
nColumns=12
inDegrees=yes

Units are S.I. units (second, meters, Newtons, ...)
Angles are in degrees

endheader
time	SC_y	SC_z	SC_x	AC_y	AC_z	AC_x	GH_y	GH_z	GH_yy	EL_x	PS_y
       0.0              -54.88           26.6          77.04          33.41         -3.214          16.96         -79.58          22.96          85.87          37.41          36.31
   0.03847              -54.88           26.6          77.04          33.41         -3.216          16.96         -79.57          22.95          85.87          37.41          36.31
   0.07693              -54.87           26.6          77.03          33.42         -3.218          16.95         -79.57          22.94          85.87          37.42          36.31
    0.1154              -54.87           26.6          77.02          33.42          -3.22          16.95         -79.56          22.94          85.87          37.42          36.31
    0.1539              -54.86           26.6          77.01          33.42         -3.222          16.95         -79.55          22.93          85.87          37.43          36.31
    0.1923              -54.85           26.6           77.0          33.42         -3.224          16.94         -79.54          22.92          85.86          37.44          36.31
    0.2308              -54.85           26.6          76.99          33.42         -3.227          16.94         -79.54          22.91          85.86          37.44          36.31
    0.2693              -54.84          26.59          76.98          33.42         -3.229          16.93         -79.53           22.9          85.86          37.45          36.32
    0.3077              -54.83          26.59          76.97          33.42         -3.232          16.93         -79.52          22.89          85.86          37.46          36.32
    0.3462              -54.82          26.59          76.96          33.42         -3.235          16.92         -79.51          22.88          85.85          37.47          36.32
    0.3847              -54.81          26.59          76.94          33.43         -3.238          16.92          -79.5          22.87          85.85          37.48          36.32
    0.4231               -54.8          26.59          76.93          33.43         -3.241          16.91         -79.48          22.86          85.85          37.49          36.32
    0.4616              -54.79          26.58          76.91          33.43         -3.245          16.91         -79.47          22.85          85.84           37.5          36.33
    0.5001              -54.78          26.58           76.9          33.43         -3.249           16.9         -79.46          22.83          85.84          37.51          36.33
    0.5385              -54.76          26.58          76.88          33.43         -3.253          16.89         -79.44          22.82          85.84          37.52          36.33
     0.577              -54.75          26.58          76.86          33.44         -3.258          16.88         -79.43           22.8          85.83          37.53          36.33
    0.6155              -54.73          26.57          76.84          33.44         -3.263          16.87         -79.41          22.78          85.83          37.55          36.34
    0.6539              -54.72          26.57          76.81          33.44         -3.269          16.87         -79.39          22.76          85.82          37.56          36.34
    0.6924               -54.7          26.57          76.79          33.45         -3.275          16.86         -79.37          22.74          85.82          37.58          36.34
    0.7309              -54.68          26.56          76.76          33.45         -3.281          16.84         -79.35          22.72          85.81           37.6          36.35
    0.7693              -54.66          26.56          76.73          33.45         -3.288          16.83         -79.32          22.69           85.8          37.62          36.35
    0.8078              -54.63          26.55          76.69          33.46         -3.296          16.82         -79.29          22.66           85.8          37.64          36.36
    0.8463               -54.6          26.55          76.66          33.46         -3.305           16.8         -79.26          22.63          85.79          37.67          36.36
    0.8847              -54.57          26.54          76.61          33.47         -3.315          16.79         -79.23           22.6          85.78           37.7          36.37
    0.9232              -54.54          26.54          76.57          33.47         -3.326          16.77         -79.19          22.56          85.77          37.73          36.37
    0.9617               -54.5          26.53          76.52          33.48         -3.338          16.75         -79.15          22.52          85.76          37.76          36.38
       1.0              -54.46          26.52          76.46          33.48         -3.351          16.72          -79.1          22.47          85.74           37.8          36.39
     1.039              -54.42          26.51          76.39          33.49         -3.367           16.7         -79.05          22.42          85.73          37.85           36.4
     1.077              -54.36           26.5          76.32           33.5         -3.384          16.67         -78.99          22.35          85.71          37.89          36.41
     1.116               -54.3          26.49          76.23          33.51         -3.403          16.63         -78.92          22.29          85.69          37.95          36.42
     1.154              -54.23          26.48          76.14          33.52         -3.426           16.6         -78.84          22.21          85.67          38.01          36.43
     1.192              -54.16          26.46          76.03          33.54         -3.451          16.55         -78.75          22.12          85.65          38.09          36.45
     1.231              -54.07          26.44           75.9          33.55         -3.481           16.5         -78.65          22.01          85.62          38.17          36.46
     1.269              -53.96          26.42          75.76          33.57         -3.515          16.44         -78.53          21.89          85.59          38.27          36.48
     1.308              -53.84           26.4          75.58          33.59         -3.555          16.37         -78.39          21.75          85.55          38.39          36.51
     1.346              -53.69          26.37          75.38          33.61         -3.603          16.29         -78.23          21.58          85.51          38.52          36.53
     1.385              -53.52          26.34          75.14          33.64         -3.659           16.2         -78.03          21.38          85.45          38.68          36.57
     1.423              -53.31           26.3          74.85          33.68         -3.726          16.08         -77.79          21.14          85.39          38.88          36.61
     1.462              -53.06          26.25           74.5          33.72         -3.808          15.94         -77.51          20.85          85.31          39.11          36.65
       1.5              -52.75          26.19          74.08          33.77         -3.908          15.77         -77.16           20.5          85.22           39.4          36.71
     1.539              -52.38          26.12          73.55          33.83         -4.031          15.56         -76.73          20.06           85.1          39.75          36.78
     1.577               -51.9          26.03          72.89          33.91         -4.184           15.3          -76.2          19.52          84.95          40.19          36.87
     1.616              -51.31          25.91          72.06          34.01         -4.377          14.97         -75.52          18.84          84.77          40.75          36.98
     1.654              -50.56          25.77          71.01          34.14         -4.623          14.55         -74.67          17.97          84.54          41.45          37.13
     1.693              -49.59          25.58          69.66           34.3         -4.937          14.01         -73.57          16.85          84.24          42.36          37.31
     1.731              -48.35          25.34          67.94          34.51         -5.341          13.32         -72.17          15.43          83.86          43.52          37.54
     1.769              -46.77          25.04          65.73          34.77         -5.856          12.44         -70.37           13.6          83.37           45.0          37.84
     1.808              -44.77          24.65          62.95           35.1         -6.504          11.33         -68.11          11.31          82.76          46.86          38.22
     1.846              -42.35          24.18          59.57          35.51         -7.294          9.975         -65.36          8.509          82.01          49.13          38.68
     1.885              -39.54          23.64          55.65          35.98         -8.209          8.408         -62.16          5.268          81.14          51.76          39.21
     1.923              -36.49          23.05           51.4          36.49         -9.201          6.711         -58.71          1.758           80.2          54.61          39.79
     1.962              -33.44          22.46          47.16           37.0         -10.19          5.014         -55.25         -1.751          79.26          57.45          40.36
       2.0              -30.63          21.92          43.24          37.47         -11.11          3.447         -52.06         -4.993           78.4          60.08          40.89
     2.039               -28.2          21.45          39.85          37.88          -11.9          2.095         -49.31         -7.789          77.65          62.35          41.35
     2.077              -26.21          21.07          37.08          38.21         -12.55         0.9856         -47.05         -10.08          77.03          64.21          41.73
     2.116              -24.63          20.76          34.87          38.47         -13.06         0.1033         -45.25         -11.91          76.55           65.7          42.03
     2.154              -23.39          20.52          33.14          38.68         -13.46        -0.5874         -43.84         -13.34          76.16          66.85          42.26
     2.193              -22.42          20.34           31.8          38.84         -13.78         -1.126         -42.75         -14.45          75.86          67.76          42.45
     2.231              -21.67          20.19          30.74          38.97         -14.02         -1.546         -41.89         -15.32          75.63          68.46          42.59
      2.27              -21.08          20.08          29.92          39.07         -14.22         -1.877         -41.22          -16.0          75.45          69.02           42.7
     2.308               -20.6          19.99          29.26          39.15         -14.37          -2.14         -40.68         -16.55           75.3          69.46          42.79
     2.346              -20.23          19.91          28.73          39.21         -14.49          -2.35         -40.25         -16.98          75.19          69.81          42.86
     2.385              -19.92          19.85           28.3          39.26         -14.59         -2.521         -39.91         -17.34          75.09           70.1          42.92
     2.423              -19.67          19.81          27.95           39.3         -14.68          -2.66         -39.62         -17.63          75.02          70.33          42.97
     2.462              -19.46          19.77          27.67          39.34         -14.74         -2.776         -39.39         -17.86          74.95          70.53          43.01
